<?xml version="1.0" encoding="utf-8"?>
<!-- Generator: Adobe Illustrator 21.0.2, SVG Export Plug-In . SVG Version: 6.00 Build 0)  -->
<svg version="1.1" id="Layer_1" xmlns="http://www.w3.org/2000/svg" xmlns:xlink="http://www.w3.org/1999/xlink" x="0px" y="0px"
	 viewBox="0 0 373 97" style="enable-background:new 0 0 373 97;" xml:space="preserve">
<style type="text/css">
	.st0{fill:#376CCF;}
	.st1{fill:#57C99A;}
</style>
<g id="V2dzpV.tif">
	<g>
		<path class="st0" d="M360.6,33.4c-4.9,0-9.9,0-14.8-0.1c-4,0-7.9,0-11.9,0c-1,0-2,0.1-3,0.3c-2.6,0.5-4,2.1-4,5.3
			c-0.1,5.7-0.1,11.3,0,17c0.1,3.7,1.9,5.3,5.7,5.3c9.1,0,18.1,0,27.2,0c0.3,0,0.6-0.1,0.8-0.1c0,2.8,0,5.6,0,8.4
			c-0.5,0-1-0.1-1.6-0.1c-9.1,0-18.2,0-27.3,0c-1.7,0-3.4-0.3-5.1-0.6c-4.6-1-7.2-3.9-7.8-8.6c-0.3-2.2-0.4-4.4-0.5-6.6
			c-0.1-4.7-0.1-9.4,0-14.1c0-2.1,0.3-4.3,0.7-6.4c0.9-4.2,4-6.9,8.6-7.5c2.1-0.3,4.3-0.5,6.5-0.5c8.3-0.1,16.7,0,25,0
			c0.5,0,1,0,1.4,0C360.6,27.8,360.6,30.6,360.6,33.4z"/>
		<path class="st0" d="M71,73.5c-2.4,0-4.7,0-6.9,0c-10.6,0-21.1,0-31.7,0c-3.8,0-6.7-2.1-7.5-5.7c-0.2-0.8-0.2-1.6-0.2-2.4
			c0-11.6,0-23.1,0-34.7c0-1.6,0-1.6-1.6-1.6c-5.3,0-10.7,0-16,0c-3.3,0-4.8-1.5-4.8-4.8c0-6,0-12,0-18.1c0-2.9,1.5-4.5,4.4-4.5
			c6.1,0,12.3,0,18.4,0c2.8,0,4.4,1.6,4.4,4.4c0,4.9,0,9.9,0,14.8c0,0.4,0,0.9,0,1.5c0.9-0.1,1.6-0.2,2.4-0.2c12.1,0,24.2,0,36.4,0
			c4.6,0,7.4,3.8,7.3,7.4c-0.1,12,0,24.1-0.1,36.1c0,1.2,0.3,1.5,1.5,1.5c5.6-0.1,11.2,0,16.9,0c2.7,0,4.3,1.6,4.3,4.2
			c0,6.2,0,12.4,0,18.7c0,2.7-1.5,4.2-4.1,4.2c-6.3,0-12.6,0-18.9,0c-2.7,0-4.2-1.6-4.2-4.3c0-5.2,0-10.4,0-15.6
			C71,74.2,71,73.7,71,73.5z"/>
		<path class="st0" d="M202.1,46.7c3.7,1.2,4.7,3.9,4.8,6.9c0.1,3,0.2,5.9-0.1,8.9c-0.3,3.4-2.6,5.7-6.2,6.4
			c-1.6,0.3-3.3,0.5-4.9,0.5c-11.1,0-22.2,0-33.3,0c-1,0-1.3-0.2-1.3-1.3c0-14,0-27.9,0-41.9c0-1,0.4-1.3,1.3-1.3
			c10.9,0,21.8,0,32.7,0c1.7,0,3.5,0.3,5.2,0.7c3.2,0.7,5.5,2.7,5.8,6.1c0.3,3.3,0.3,6.6,0.1,9.9C206.1,44.1,204.6,45.6,202.1,46.7z
			 M169.6,47.3c0,4.3,0,8.6,0,12.9c0,1.1,0.3,1.5,1.5,1.5c7.7-0.1,15.4,0,23.1,0c0.8,0,1.6-0.1,2.4-0.2c1.7-0.3,2.5-1.3,2.6-3
			c0-1.4,0-2.9,0-4.3c-0.1-2.4-1.2-3.5-3.6-3.7c-0.6,0-1.1,0-1.7,0c-5.4,0-10.8,0-16.1,0c-0.9,0-1.3-0.2-1.2-1.2
			c0.1-1.4,0.1-2.8,0-4.2c-0.1-1.1,0.3-1.5,1.5-1.5c5.1,0.1,10.2,0,15.3,0c0.9,0,1.8-0.1,2.8-0.2c1.4-0.2,2.3-0.8,2.4-2.2
			c0.2-1.8,0.3-3.7,0.1-5.5c-0.1-1.4-1.1-2.2-2.6-2.5c-0.9-0.1-1.8-0.2-2.8-0.2c-7.4,0-14.8,0-22.1,0c-1.2,0-1.5,0.4-1.5,1.5
			C169.6,38.7,169.6,43,169.6,47.3z"/>
		<path class="st0" d="M221.2,51.1c-0.1,2.6-0.3,5.1,0.5,7.5c0.5,1.6,1.8,2.3,3.3,2.5c1.1,0.1,2.2,0.2,3.4,0.2c8.3,0,16.7,0,25,0
			c1.2,0,1.7,0.2,1.6,1.5c-0.1,1.8-0.1,3.7,0,5.5c0,0.7-0.1,1.1-1,1.1c-9.5,0-19.1,0-28.6-0.1c-1.7,0-3.5-0.4-5.2-0.8
			c-4.3-1.2-7-4.6-7.1-9.4c-0.2-7.3-0.2-14.6-0.2-21.9c0-1.3,0.3-2.6,0.6-3.9c1-4.5,3.9-7.3,8.6-7.8c4.8-0.5,9.6-0.4,14.4-0.5
			c0.2,0,0.7,0.5,0.7,0.8c0.1,2.2,0,4.4,0,6.6c0,0.9-0.5,0.8-1.1,0.8c-3,0-6,0-9,0c-0.8,0-1.5,0.1-2.3,0.3c-2.2,0.5-3.4,1.9-3.5,4.1
			c-0.1,1.4-0.1,2.9-0.2,4.3c-0.1,1,0.3,1.4,1.4,1.4c10.1,0,20.1,0,30.2,0c2.3,0,2-0.3,2.1,2c0,1.4,0,2.7,0,4.1c0,1.6,0,1.6-1.5,1.6
			c-10.1,0-20.2,0-30.3,0C222.4,51.1,221.9,51.1,221.2,51.1z"/>
		<path class="st0" d="M154.1,42c0,5,0.1,10,0,14.9c0,1.7-0.4,3.5-0.8,5.2c-1.1,4-4,6.1-7.9,6.8c-1.8,0.3-3.6,0.5-5.4,0.5
			c-5.7,0.1-11.4,0.1-17.1,0c-1.9,0-3.9-0.3-5.7-0.8c-4.4-1.2-6.6-4.3-7.2-8.7c-0.3-2.4-0.4-4.9-0.5-7.3c-0.1-8.7,0-17.5,0-26.2
			c0-1.1,0.3-1.4,1.4-1.4c1.9,0.1,3.9,0.1,5.8,0c1.1-0.1,1.5,0.3,1.5,1.5c-0.1,5.5,0,11,0,16.5c0,4.2,0,8.4,0.1,12.6
			c0.1,3.5,2,5.5,5.5,5.5c5.5,0.1,10.9,0.1,16.4,0c3.4,0,5.1-1.7,5.5-5.1c0.1-1.2,0.2-2.4,0.2-3.6c0-8.7,0-17.3,0-26
			c0-1.1,0.3-1.5,1.4-1.4c1.9,0.1,3.9,0.1,5.8,0c1,0,1.2,0.3,1.2,1.2C154.2,31.5,154.2,36.8,154.1,42C154.2,42,154.1,42,154.1,42z"
			/>
		<path class="st0" d="M268.5,68.3c-0.5,0.9-1,1.2-2,1.2c-2.8-0.1-5.5,0-8.4,0c0.2-0.4,0.3-0.7,0.5-1c7.4-13.2,14.7-26.5,22.1-39.7
			c0.3-0.6,0.7-1.2,1.1-1.7c2.5-4,8.8-3.8,11-0.1c1.3,2.2,2.6,4.4,3.8,6.7c6.4,11.5,12.7,23,19.1,34.5c0.2,0.4,0.4,0.8,0.7,1.3
			c-0.5,0-0.9,0.1-1.3,0.1c-2.4,0-4.8-0.1-7.2,0c-1,0-1.5-0.3-1.9-1.2c-1.5-2.7-3-5.4-4.5-8.1c-0.4-0.8-0.9-1.1-1.8-1.1
			c-5.6,0-11.2,0-16.7,0c-0.5,0-1,0-1.6,0c0.2-0.5,0.3-0.8,0.4-1.1c0.9-1.7,1.9-3.4,2.8-5.2c0.4-0.9,1-1.1,1.9-1.1
			c3,0.1,5.9,0,8.9,0c0.4,0,0.9,0,1.6,0c-3.3-6.1-6.4-11.9-9.7-17.9c-0.4,0.6-0.6,1-0.8,1.4"/>
		<path class="st1" d="M96.6,12c0,2.3,0,4.7,0,7c0,2-0.9,3-2.9,3c-4.7,0-9.3,0-14,0c-1.8,0-3.2-1.5-3.2-3.2c0-4.5,0-9.1,0-13.6
			c0-1.8,1.5-3.3,3.3-3.3c4.6,0,9.2,0,13.7,0c2,0,3.1,1.1,3.1,3.1C96.6,7.4,96.6,9.7,96.6,12z"/>
	</g>
</g>
</svg>
